<svg width="739" height="191" viewBox="0 0 739 191" fill="none" xmlns="http://www.w3.org/2000/svg">
<g clip-path="url(#clip0)">
<rect x="36.5471" y="5.63353" width="332" height="131" rx="11" transform="rotate(5.45639 36.5471 5.63353)" fill="#FAFBFF"/>
<rect x="51.4731" y="28.1549" width="14" height="14" rx="7" transform="rotate(5.45639 51.4731 28.1549)" stroke="#8B9BDB" stroke-width="2"/>
<path d="M76.0747 33.5184L140.78 39.6992" stroke="#8B9BDB" stroke-width="5" stroke-linecap="round"/>
<path d="M72.0869 54.2332L226.385 68.9718" stroke="#8B9BDB" stroke-width="2" stroke-linecap="round"/>
<path d="M70.9458 66.1788L210.311 79.4912" stroke="#8B9BDB" stroke-width="2" stroke-linecap="round"/>
<path d="M69.8047 78.1244L236.048 94.0041" stroke="#8B9BDB" stroke-width="2" stroke-linecap="round"/>
<path d="M68.6638 90.0701L151.288 97.9624" stroke="#8B9BDB" stroke-width="2" stroke-linecap="round"/>
<path d="M65.7161 120.93L183.679 132.198" stroke="#8B9BDB" stroke-width="2" stroke-linecap="round"/>
<path d="M199.606 133.719L232.955 136.904" stroke="#8B9BDB" stroke-width="2" stroke-linecap="round"/>
<path d="M248.882 138.426L270.783 140.518" stroke="#8B9BDB" stroke-width="2" stroke-linecap="round"/>
</g>
<rect x="36.5471" y="5.63353" width="332" height="131" rx="11" transform="rotate(5.45639 36.5471 5.63353)" stroke="#8B9BDB" stroke-width="2"/>
<rect x="1" y="58.543" width="332" height="131" rx="11" fill="#FAFBFF"/>
<rect x="18" y="79.543" width="14" height="14" rx="7" stroke="#8B9BDB" stroke-width="2"/>
<path d="M43 82.543H108" stroke="#8B9BDB" stroke-width="5" stroke-linecap="round"/>
<path d="M41 103.543L196 103.543" stroke="#8B9BDB" stroke-width="2" stroke-linecap="round"/>
<path d="M41 115.543H181" stroke="#8B9BDB" stroke-width="2" stroke-linecap="round"/>
<path d="M41 127.543L208 127.543" stroke="#8B9BDB" stroke-width="2" stroke-linecap="round"/>
<path d="M41 139.543L124 139.543" stroke="#8B9BDB" stroke-width="2" stroke-linecap="round"/>
<path d="M41 170.543H159.5" stroke="#8B9BDB" stroke-width="2" stroke-linecap="round"/>
<path d="M175.5 170.543H209" stroke="#8B9BDB" stroke-width="2" stroke-linecap="round"/>
<path d="M225 170.543H247" stroke="#8B9BDB" stroke-width="2" stroke-linecap="round"/>
<rect x="1" y="58.543" width="332" height="131" rx="11" stroke="#8B9BDB" stroke-width="2"/>
<rect x="387.919" y="56.9525" width="332" height="131" rx="11" transform="rotate(-9.67551 387.919 56.9525)" fill="#FAFBFF"/>
<rect x="408.207" y="74.7966" width="14" height="14" rx="7" transform="rotate(-9.67551 408.207 74.7966)" stroke="#8B9BDB" stroke-width="2"/>
<path d="M433.356 73.5522L497.431 62.6278" stroke="#8B9BDB" stroke-width="5" stroke-linecap="round"/>
<path d="M434.914 94.5896L587.709 68.5391" stroke="#8B9BDB" stroke-width="2" stroke-linecap="round"/>
<path d="M436.93 106.419L574.939 82.8894" stroke="#8B9BDB" stroke-width="2" stroke-linecap="round"/>
<path d="M438.947 118.248L603.572 90.1809" stroke="#8B9BDB" stroke-width="2" stroke-linecap="round"/>
<path d="M440.964 130.078L522.783 116.128" stroke="#8B9BDB" stroke-width="2" stroke-linecap="round"/>
<path d="M446.174 160.637L562.988 140.721" stroke="#8B9BDB" stroke-width="2" stroke-linecap="round"/>
<path d="M578.761 138.031L611.784 132.401" stroke="#8B9BDB" stroke-width="2" stroke-linecap="round"/>
<path d="M627.557 129.712L649.244 126.015" stroke="#8B9BDB" stroke-width="2" stroke-linecap="round"/>
<rect x="387.919" y="56.9525" width="332" height="131" rx="11" transform="rotate(-9.67551 387.919 56.9525)" stroke="#8B9BDB" stroke-width="2"/>
<defs>
<clipPath id="clip0">
</clipPath>
</defs>
</svg>
