<svg width="797" height="711" viewBox="0 0 797 711" fill="none" xmlns="http://www.w3.org/2000/svg">
<path fill-rule="evenodd" clip-rule="evenodd" d="M25 25C25 27.7614 27.2386 30 30 30C32.7614 30 35 27.7614 35 25C35 22.2386 32.7614 20 30 20C27.2386 20 25 22.2386 25 25ZM30 19C26.6863 19 24 21.6863 24 25C24 28.3137 26.6863 31 30 31C33.3137 31 36 28.3137 36 25C36 21.6863 33.3137 19 30 19ZM41 25C41 27.7614 43.2386 30 46 30C48.7614 30 51 27.7614 51 25C51 22.2386 48.7614 20 46 20C43.2386 20 41 22.2386 41 25ZM46 19C42.6863 19 40 21.6863 40 25C40 28.3137 42.6863 31 46 31C49.3137 31 52 28.3137 52 25C52 21.6863 49.3137 19 46 19ZM62 30C59.2386 30 57 27.7614 57 25C57 22.2386 59.2386 20 62 20C64.7614 20 67 22.2386 67 25C67 27.7614 64.7614 30 62 30ZM56 25C56 21.6863 58.6863 19 62 19C65.3137 19 68 21.6863 68 25C68 28.3137 65.3137 31 62 31C58.6863 31 56 28.3137 56 25ZM581 239H28C26.3431 239 25 240.343 25 242V301C25 302.657 26.3432 304 28 304H581C582.657 304 584 302.657 584 301V242C584 240.343 582.657 239 581 239ZM28 238C25.7909 238 24 239.791 24 242V301C24 303.209 25.7909 305 28 305H581C583.209 305 585 303.209 585 301V242C585 239.791 583.209 238 581 238H28ZM28 314H581C582.657 314 584 315.343 584 317V376C584 377.657 582.657 379 581 379H28C26.3432 379 25 377.657 25 376V317C25 315.343 26.3431 314 28 314ZM24 317C24 314.791 25.7909 313 28 313H581C583.209 313 585 314.791 585 317V376C585 378.209 583.209 380 581 380H28C25.7909 380 24 378.209 24 376V317ZM581 389H28C26.3431 389 25 390.343 25 392V451C25 452.657 26.3432 454 28 454H581C582.657 454 584 452.657 584 451V392C584 390.343 582.657 389 581 389ZM28 388C25.7909 388 24 389.791 24 392V451C24 453.209 25.7909 455 28 455H581C583.209 455 585 453.209 585 451V392C585 389.791 583.209 388 581 388H28ZM28 464H581C582.657 464 584 465.343 584 467V526C584 527.657 582.657 529 581 529H28C26.3432 529 25 527.657 25 526V467C25 465.343 26.3431 464 28 464ZM24 467C24 464.791 25.7909 463 28 463H581C583.209 463 585 464.791 585 467V526C585 528.209 583.209 530 581 530H28C25.7909 530 24 528.209 24 526V467ZM581 539H28C26.3431 539 25 540.343 25 542V601C25 602.657 26.3432 604 28 604H581C582.657 604 584 602.657 584 601V542C584 540.343 582.657 539 581 539ZM28 538C25.7909 538 24 539.791 24 542V601C24 603.209 25.7909 605 28 605H581C583.209 605 585 603.209 585 601V542C585 539.791 583.209 538 581 538H28ZM28 614H581C582.657 614 584 615.343 584 617V676C584 677.657 582.657 679 581 679H28C26.3432 679 25 677.657 25 676V617C25 615.343 26.3431 614 28 614ZM24 617C24 614.791 25.7909 613 28 613H581C583.209 613 585 614.791 585 617V676C585 678.209 583.209 680 581 680H28C25.7909 680 24 678.209 24 676V617ZM28 131C26.3431 131 25 132.343 25 134V150C25 151.657 26.3431 153 28 153H106C107.657 153 109 151.657 109 150V134C109 132.343 107.657 131 106 131H28ZM28 130C25.7909 130 24 131.791 24 134V150C24 152.209 25.7909 154 28 154H106C108.209 154 110 152.209 110 150V134C110 131.791 108.209 130 106 130H28ZM122 131H167C168.657 131 170 132.343 170 134V150C170 151.657 168.657 153 167 153H122C120.343 153 119 151.657 119 150V134C119 132.343 120.343 131 122 131ZM118 134C118 131.791 119.791 130 122 130H167C169.209 130 171 131.791 171 134V150C171 152.209 169.209 154 167 154H122C119.791 154 118 152.209 118 150V134ZM319 131H183C181.343 131 180 132.343 180 134V150C180 151.657 181.343 153 183 153H319C320.657 153 322 151.657 322 150V134C322 132.343 320.657 131 319 131ZM183 130C180.791 130 179 131.791 179 134V150C179 152.209 180.791 154 183 154H319C321.209 154 323 152.209 323 150V134C323 131.791 321.209 130 319 130H183ZM335 131H397C398.657 131 400 132.343 400 134V150C400 151.657 398.657 153 397 153H335C333.343 153 332 151.657 332 150V134C332 132.343 333.343 131 335 131ZM331 134C331 131.791 332.791 130 335 130H397C399.209 130 401 131.791 401 134V150C401 152.209 399.209 154 397 154H335C332.791 154 331 152.209 331 150V134ZM522 131H413C411.343 131 410 132.343 410 134V150C410 151.657 411.343 153 413 153H522C523.657 153 525 151.657 525 150V134C525 132.343 523.657 131 522 131ZM413 130C410.791 130 409 131.791 409 134V150C409 152.209 410.791 154 413 154H522C524.209 154 526 152.209 526 150V134C526 131.791 524.209 130 522 130H413ZM538 131H677C678.657 131 680 132.343 680 134V150C680 151.657 678.657 153 677 153H538C536.343 153 535 151.657 535 150V134C535 132.343 536.343 131 538 131ZM534 134C534 131.791 535.791 130 538 130H677C679.209 130 681 131.791 681 134V150C681 152.209 679.209 154 677 154H538C535.791 154 534 152.209 534 150V134ZM134 163H28C26.3431 163 25 164.343 25 166V182C25 183.657 26.3431 185 28 185H134C135.657 185 137 183.657 137 182V166C137 164.343 135.657 163 134 163ZM28 162C25.7909 162 24 163.791 24 166V182C24 184.209 25.7909 186 28 186H134C136.209 186 138 184.209 138 182V166C138 163.791 136.209 162 134 162H28ZM53.3175 93H55.9015L51.8585 88.3418L55.5763 84H53.1241L49.8195 88.1221H49.7843V79.6758H47.7364V93H49.7843V88.6758H49.8195L53.3175 93ZM33.7608 81.7852C34.001 82.002 34.2881 82.1104 34.6221 82.1104C34.9678 82.1104 35.2608 81.999 35.501 81.7764C35.7413 81.5479 35.8614 81.2754 35.8614 80.959C35.8614 80.625 35.7413 80.3467 35.501 80.124C35.2608 79.9014 34.9678 79.79 34.6221 79.79C34.2881 79.79 34.001 79.9014 33.7608 80.124C33.5264 80.3467 33.4092 80.625 33.4092 80.959C33.4092 81.293 33.5264 81.5684 33.7608 81.7852ZM33.5938 93H35.6329V84H33.5938V93ZM25.5557 93H32.5342V91.2334H27.6475V80.3965H25.5557V93ZM45.7804 93H43.7413V87.9287C43.7413 86.2471 43.1466 85.4062 41.9571 85.4062C41.336 85.4062 40.8233 85.6406 40.419 86.1094C40.0147 86.5723 39.8126 87.1582 39.8126 87.8672V93H37.7647V84H39.8126V85.4941H39.8477C40.5216 84.3574 41.4942 83.7891 42.7657 83.7891C43.7442 83.7891 44.4913 84.1084 45.0069 84.7471C45.5225 85.3799 45.7804 86.2969 45.7804 87.498V93ZM58.7277 91.6992H58.6925V93H56.6535V79.6758H58.6925V85.582H58.7277C59.425 84.3867 60.4445 83.7891 61.7863 83.7891C62.923 83.7891 63.8107 84.1934 64.4494 85.002C65.0939 85.8047 65.4162 86.8828 65.4162 88.2363C65.4162 89.7422 65.0558 90.9492 64.3351 91.8574C63.6144 92.7598 62.63 93.2109 61.382 93.2109C60.2101 93.2109 59.3254 92.707 58.7277 91.6992ZM58.675 88.1221V89.2383C58.675 89.8945 58.883 90.4512 59.299 90.9082C59.7209 91.3652 60.2541 91.5938 60.8986 91.5938C61.6545 91.5938 62.2463 91.3008 62.674 90.7148C63.1076 90.123 63.3244 89.2998 63.3244 88.2451C63.3244 87.3604 63.1222 86.6689 62.7179 86.1709C62.3195 85.667 61.7775 85.415 61.092 85.415C60.3654 85.415 59.7795 85.6729 59.3341 86.1885C58.8947 86.7041 58.675 87.3486 58.675 88.1221ZM71.6789 93H73.6564V87.1465C73.6564 84.9082 72.5197 83.7891 70.2463 83.7891C69.0041 83.7891 67.9084 84.0703 66.9592 84.6328V86.417C67.8205 85.6787 68.7873 85.3096 69.8596 85.3096C71.0783 85.3096 71.6877 85.9512 71.6877 87.2344L69.0158 87.6123C67.0588 87.8936 66.0803 88.8838 66.0803 90.583C66.0803 91.374 66.3293 92.0098 66.8273 92.4902C67.3312 92.9707 68.0256 93.2109 68.9104 93.2109C70.1115 93.2109 71.0227 92.6719 71.6437 91.5938H71.6789V93ZM69.798 88.8428L71.6877 88.5791V89.3613C71.6877 90.0234 71.4826 90.5742 71.0725 91.0137C70.6682 91.4473 70.1555 91.6641 69.5344 91.6641C69.0773 91.6641 68.7111 91.5439 68.4357 91.3037C68.1662 91.0576 68.0314 90.7441 68.0314 90.3633C68.0314 89.8418 68.1779 89.4785 68.4709 89.2734C68.7697 89.0625 69.2121 88.9189 69.798 88.8428ZM75.05 92.7188V90.8291C75.8118 91.4092 76.6526 91.6992 77.5725 91.6992C78.803 91.6992 79.4182 91.3359 79.4182 90.6094C79.4182 90.4043 79.3655 90.2314 79.26 90.0908C79.1545 89.9443 79.011 89.8154 78.8293 89.7041C78.6536 89.5928 78.4426 89.4932 78.1965 89.4053C77.9563 89.3174 77.6868 89.2178 77.3879 89.1064C77.0188 88.96 76.6848 88.8047 76.386 88.6406C76.093 88.4766 75.8469 88.292 75.6477 88.0869C75.4543 87.876 75.3078 87.6387 75.2082 87.375C75.1086 87.1113 75.0588 86.8037 75.0588 86.4521C75.0588 86.0186 75.1614 85.6377 75.3664 85.3096C75.5715 84.9756 75.8469 84.6973 76.1926 84.4746C76.5383 84.2461 76.9309 84.0762 77.3703 83.9648C77.8098 83.8477 78.2639 83.7891 78.7327 83.7891C79.5647 83.7891 80.3088 83.915 80.9651 84.167V85.9512C80.3323 85.5176 79.6057 85.3008 78.7854 85.3008C78.5276 85.3008 78.2932 85.3271 78.0823 85.3799C77.8772 85.4326 77.7014 85.5059 77.5549 85.5996C77.4084 85.6934 77.2942 85.8076 77.2121 85.9424C77.1301 86.0713 77.0891 86.2148 77.0891 86.373C77.0891 86.5664 77.1301 86.7305 77.2121 86.8652C77.2942 87 77.4143 87.1201 77.5725 87.2256C77.7366 87.3252 77.9299 87.4189 78.1526 87.5068C78.3811 87.5889 78.6418 87.6797 78.9348 87.7793C79.3215 87.9375 79.6672 88.0986 79.9719 88.2627C80.2825 88.4268 80.5461 88.6143 80.7629 88.8252C80.9797 89.0303 81.1467 89.2705 81.2639 89.5459C81.3811 89.8154 81.4397 90.1377 81.4397 90.5127C81.4397 90.9697 81.3342 91.3682 81.1233 91.708C80.9123 92.0479 80.6311 92.3291 80.2795 92.5518C79.928 92.7744 79.5207 92.9385 79.0578 93.0439C78.6008 93.1553 78.1174 93.2109 77.6077 93.2109C76.6233 93.2109 75.7707 93.0469 75.05 92.7188ZM84.3274 89.0537H90.4622V88.2715C90.4622 86.8652 90.1253 85.7666 89.4514 84.9756C88.7776 84.1846 87.8255 83.7891 86.595 83.7891C85.3645 83.7891 84.3333 84.2314 83.5013 85.1162C82.6751 85.9951 82.262 87.1348 82.262 88.5352C82.262 90.0176 82.637 91.1689 83.387 91.9893C84.1429 92.8037 85.1829 93.2109 86.5071 93.2109C87.8548 93.2109 88.9388 92.9531 89.7591 92.4375V90.7939C88.9563 91.3682 88.0745 91.6553 87.1136 91.6553C86.2581 91.6553 85.5843 91.4297 85.0921 90.9785C84.6057 90.5273 84.3509 89.8857 84.3274 89.0537ZM87.9749 85.9072C88.3147 86.3115 88.4876 86.8799 88.4934 87.6123H84.3274C84.4212 86.9209 84.6702 86.3613 85.0745 85.9336C85.4846 85.5059 85.9827 85.292 86.5686 85.292C87.1663 85.292 87.635 85.4971 87.9749 85.9072ZM184.893 80.7393C184.641 80.5752 184.316 80.4932 183.917 80.4932C182.863 80.4932 182.335 81.1816 182.335 82.5586V84H184.576V84.9844H182.335V93H181.21V84.9844H179.637V84H181.21V82.4883C181.21 82.0371 181.266 81.6299 181.377 81.2666C181.494 80.8975 181.664 80.584 181.887 80.3262C182.11 80.0625 182.388 79.8604 182.722 79.7197C183.062 79.5791 183.451 79.5088 183.891 79.5088C184.313 79.5088 184.647 79.5645 184.893 79.6758V80.7393ZM134.682 93V91.418H134.647C134.348 91.9863 133.92 92.4287 133.363 92.7451C132.813 93.0557 132.186 93.2109 131.482 93.2109C130.92 93.2109 130.407 93.1084 129.944 92.9033C129.487 92.6924 129.095 92.3906 128.767 91.998C128.439 91.6055 128.184 91.1309 128.002 90.5742C127.826 90.0176 127.738 89.3877 127.738 88.6846C127.738 87.958 127.835 87.2959 128.028 86.6982C128.228 86.0947 128.506 85.5791 128.863 85.1514C129.227 84.7178 129.66 84.3838 130.164 84.1494C130.674 83.9092 131.239 83.7891 131.86 83.7891C133.155 83.7891 134.084 84.3076 134.647 85.3447H134.682V79.6758H135.807V93H134.682ZM134.682 87.5684C134.682 87.1758 134.614 86.8096 134.48 86.4697C134.345 86.1299 134.157 85.834 133.917 85.582C133.677 85.3301 133.387 85.1309 133.047 84.9844C132.713 84.8379 132.344 84.7646 131.939 84.7646C131.494 84.7646 131.084 84.8525 130.709 85.0283C130.334 85.2041 130.012 85.459 129.742 85.793C129.479 86.1211 129.271 86.5225 129.118 86.9971C128.972 87.4717 128.898 88.0107 128.898 88.6143C128.898 89.1826 128.966 89.6924 129.101 90.1436C129.235 90.5947 129.426 90.9756 129.672 91.2861C129.924 91.5967 130.223 91.834 130.568 91.998C130.914 92.1621 131.298 92.2441 131.72 92.2441C132.177 92.2441 132.587 92.1621 132.95 91.998C133.319 91.834 133.63 91.6084 133.882 91.3213C134.14 91.0342 134.336 90.6973 134.471 90.3105C134.611 89.9238 134.682 89.5107 134.682 89.0713V87.5684ZM125.8 93L124.411 89.2734H119.006L117.652 93H116.352L121.15 80.3965H122.328L127.101 93H125.8ZM121.959 82.6025C121.918 82.4912 121.874 82.3623 121.827 82.2158C121.786 82.0693 121.751 81.9023 121.722 81.7148H121.687C121.651 81.9023 121.61 82.0693 121.563 82.2158C121.522 82.3623 121.481 82.4912 121.44 82.6025L119.401 88.21H124.016L121.959 82.6025ZM144.478 91.418V93H145.603V79.6758H144.478V85.3447H144.442C143.88 84.3076 142.951 83.7891 141.656 83.7891C141.035 83.7891 140.47 83.9092 139.96 84.1494C139.456 84.3838 139.023 84.7178 138.659 85.1514C138.302 85.5791 138.024 86.0947 137.824 86.6982C137.631 87.2959 137.534 87.958 137.534 88.6846C137.534 89.3877 137.622 90.0176 137.798 90.5742C137.98 91.1309 138.234 91.6055 138.563 91.998C138.891 92.3906 139.283 92.6924 139.74 92.9033C140.203 93.1084 140.716 93.2109 141.278 93.2109C141.982 93.2109 142.608 93.0557 143.159 92.7451C143.716 92.4287 144.144 91.9863 144.442 91.418H144.478ZM144.275 86.4697C144.41 86.8096 144.478 87.1758 144.478 87.5684V89.0713C144.478 89.5107 144.407 89.9238 144.267 90.3105C144.132 90.6973 143.936 91.0342 143.678 91.3213C143.426 91.6084 143.115 91.834 142.746 91.998C142.383 92.1621 141.973 92.2441 141.516 92.2441C141.094 92.2441 140.71 92.1621 140.364 91.998C140.019 91.834 139.72 91.5967 139.468 91.2861C139.222 90.9756 139.031 90.5947 138.897 90.1436C138.762 89.6924 138.694 89.1826 138.694 88.6143C138.694 88.0107 138.768 87.4717 138.914 86.9971C139.066 86.5225 139.274 86.1211 139.538 85.793C139.808 85.459 140.13 85.2041 140.505 85.0283C140.88 84.8525 141.29 84.7646 141.735 84.7646C142.14 84.7646 142.509 84.8379 142.843 84.9844C143.183 85.1309 143.473 85.3301 143.713 85.582C143.953 85.834 144.141 86.1299 144.275 86.4697ZM151.853 91.3828C152.023 91.5176 152.207 91.6377 152.406 91.7432C152.606 91.8486 152.811 91.9395 153.022 92.0156C153.233 92.0918 153.444 92.1504 153.654 92.1914C153.871 92.2266 154.076 92.2441 154.27 92.2441C155.606 92.2441 156.274 91.7432 156.274 90.7412C156.274 90.5127 156.227 90.3164 156.133 90.1523C156.039 89.9824 155.904 89.8301 155.729 89.6953C155.553 89.5547 155.342 89.4258 155.096 89.3086C154.85 89.1914 154.571 89.0684 154.261 88.9395C153.845 88.7695 153.487 88.5967 153.189 88.4209C152.89 88.2451 152.644 88.0547 152.45 87.8496C152.257 87.6387 152.113 87.4102 152.02 87.1641C151.926 86.9121 151.879 86.6279 151.879 86.3115C151.879 85.9131 151.964 85.5586 152.134 85.248C152.31 84.9375 152.544 84.6738 152.837 84.457C153.13 84.2402 153.467 84.0762 153.848 83.9648C154.235 83.8477 154.639 83.7891 155.061 83.7891C155.84 83.7891 156.52 83.9355 157.1 84.2285V85.415C156.426 84.9814 155.699 84.7646 154.92 84.7646C154.639 84.7646 154.381 84.7998 154.147 84.8701C153.918 84.9404 153.722 85.04 153.558 85.1689C153.394 85.2979 153.265 85.4531 153.171 85.6348C153.083 85.8105 153.039 86.0068 153.039 86.2236C153.039 86.4463 153.074 86.6426 153.145 86.8125C153.215 86.9766 153.323 87.126 153.47 87.2607C153.622 87.3955 153.816 87.5244 154.05 87.6475C154.29 87.7705 154.58 87.9023 154.92 88.043C155.354 88.2188 155.729 88.3945 156.045 88.5703C156.361 88.7402 156.622 88.9277 156.827 89.1328C157.032 89.332 157.185 89.5576 157.284 89.8096C157.384 90.0557 157.434 90.3428 157.434 90.6709C157.434 91.0752 157.349 91.4355 157.179 91.752C157.015 92.0684 156.783 92.335 156.485 92.5518C156.192 92.7686 155.846 92.9326 155.447 93.0439C155.049 93.1553 154.615 93.2109 154.147 93.2109C153.238 93.2109 152.474 93.0205 151.853 92.6396V91.3828ZM165.208 87.709V93H166.333V87.4365C166.333 86.2354 166.081 85.3271 165.577 84.7119C165.073 84.0967 164.321 83.7891 163.319 83.7891C162.006 83.7891 160.998 84.3779 160.295 85.5557H160.26V79.6758H159.135V93H160.26V87.9639C160.26 87.4658 160.333 87.0205 160.48 86.6279C160.626 86.2295 160.822 85.8926 161.069 85.6172C161.315 85.3418 161.602 85.1309 161.93 84.9844C162.258 84.8379 162.604 84.7646 162.967 84.7646C163.735 84.7646 164.3 85.0049 164.663 85.4854C165.027 85.96 165.208 86.7012 165.208 87.709ZM169.045 88.7021C169.051 89.2529 169.124 89.748 169.265 90.1875C169.406 90.627 169.608 90.999 169.871 91.3037C170.135 91.6084 170.454 91.8428 170.829 92.0068C171.21 92.165 171.638 92.2441 172.113 92.2441C173.126 92.2441 174.084 91.8896 174.987 91.1807V92.2881C174.125 92.9033 173.082 93.2109 171.858 93.2109C171.254 93.2109 170.706 93.1055 170.214 92.8945C169.722 92.6836 169.303 92.3789 168.957 91.9805C168.612 91.5762 168.345 91.0811 168.157 90.4951C167.97 89.9092 167.876 89.2412 167.876 88.4912C167.876 87.8174 167.979 87.1934 168.184 86.6191C168.389 86.0449 168.673 85.5498 169.036 85.1338C169.4 84.7119 169.83 84.3838 170.328 84.1494C170.826 83.9092 171.371 83.7891 171.963 83.7891C172.543 83.7891 173.056 83.8916 173.501 84.0967C173.947 84.2959 174.319 84.583 174.617 84.958C174.922 85.333 175.154 85.79 175.312 86.3291C175.47 86.8682 175.549 87.4717 175.549 88.1396V88.7021H169.045ZM173.721 85.5381C173.293 85.0225 172.698 84.7646 171.937 84.7646C171.556 84.7646 171.201 84.832 170.873 84.9668C170.551 85.1016 170.267 85.2979 170.021 85.5557C169.775 85.8076 169.57 86.1182 169.406 86.4873C169.247 86.8506 169.136 87.2607 169.072 87.7178H174.389C174.371 86.7803 174.149 86.0537 173.721 85.5381ZM177.215 79.6758V93H178.34V79.6758H177.215ZM232.682 93V91.418H232.647C232.348 91.9863 231.92 92.4287 231.363 92.7451C230.813 93.0557 230.186 93.2109 229.482 93.2109C228.92 93.2109 228.407 93.1084 227.944 92.9033C227.487 92.6924 227.095 92.3906 226.767 91.998C226.439 91.6055 226.184 91.1309 226.002 90.5742C225.826 90.0176 225.738 89.3877 225.738 88.6846C225.738 87.958 225.835 87.2959 226.028 86.6982C226.228 86.0947 226.506 85.5791 226.863 85.1514C227.227 84.7178 227.66 84.3838 228.164 84.1494C228.674 83.9092 229.239 83.7891 229.86 83.7891C231.155 83.7891 232.084 84.3076 232.647 85.3447H232.682V79.6758H233.807V93H232.682ZM232.682 87.5684C232.682 87.1758 232.614 86.8096 232.48 86.4697C232.345 86.1299 232.157 85.834 231.917 85.582C231.677 85.3301 231.387 85.1309 231.047 84.9844C230.713 84.8379 230.344 84.7646 229.939 84.7646C229.494 84.7646 229.084 84.8525 228.709 85.0283C228.334 85.2041 228.012 85.459 227.742 85.793C227.479 86.1211 227.271 86.5225 227.118 86.9971C226.972 87.4717 226.898 88.0107 226.898 88.6143C226.898 89.1826 226.966 89.6924 227.101 90.1436C227.235 90.5947 227.426 90.9756 227.672 91.2861C227.924 91.5967 228.223 91.834 228.568 91.998C228.914 92.1621 229.298 92.2441 229.72 92.2441C230.177 92.2441 230.587 92.1621 230.95 91.998C231.319 91.834 231.63 91.6084 231.882 91.3213C232.14 91.0342 232.336 90.6973 232.471 90.3105C232.611 89.9238 232.682 89.5107 232.682 89.0713V87.5684ZM223.8 93L222.411 89.2734H217.006L215.652 93H214.352L219.15 80.3965H220.328L225.101 93H223.8ZM219.959 82.6025C219.918 82.4912 219.874 82.3623 219.827 82.2158C219.786 82.0693 219.751 81.9023 219.722 81.7148H219.687C219.651 81.9023 219.61 82.0693 219.563 82.2158C219.522 82.3623 219.481 82.4912 219.44 82.6025L217.401 88.21H222.016L219.959 82.6025ZM242.478 91.418V93H243.603V79.6758H242.478V85.3447H242.442C241.88 84.3076 240.951 83.7891 239.656 83.7891C239.035 83.7891 238.47 83.9092 237.96 84.1494C237.456 84.3838 237.023 84.7178 236.659 85.1514C236.302 85.5791 236.024 86.0947 235.824 86.6982C235.631 87.2959 235.534 87.958 235.534 88.6846C235.534 89.3877 235.622 90.0176 235.798 90.5742C235.98 91.1309 236.234 91.6055 236.563 91.998C236.891 92.3906 237.283 92.6924 237.74 92.9033C238.203 93.1084 238.716 93.2109 239.278 93.2109C239.982 93.2109 240.608 93.0557 241.159 92.7451C241.716 92.4287 242.144 91.9863 242.442 91.418H242.478ZM242.275 86.4697C242.41 86.8096 242.478 87.1758 242.478 87.5684V89.0713C242.478 89.5107 242.407 89.9238 242.267 90.3105C242.132 90.6973 241.936 91.0342 241.678 91.3213C241.426 91.6084 241.115 91.834 240.746 91.998C240.383 92.1621 239.973 92.2441 239.516 92.2441C239.094 92.2441 238.71 92.1621 238.364 91.998C238.019 91.834 237.72 91.5967 237.468 91.2861C237.222 90.9756 237.031 90.5947 236.897 90.1436C236.762 89.6924 236.694 89.1826 236.694 88.6143C236.694 88.0107 236.768 87.4717 236.914 86.9971C237.066 86.5225 237.274 86.1211 237.538 85.793C237.808 85.459 238.13 85.2041 238.505 85.0283C238.88 84.8525 239.29 84.7646 239.735 84.7646C240.14 84.7646 240.509 84.8379 240.843 84.9844C241.183 85.1309 241.473 85.3301 241.713 85.582C241.953 85.834 242.141 86.1299 242.275 86.4697ZM251.487 91.5498V93H250.362V79.6758H251.487V85.7227H251.523C251.857 85.0957 252.302 84.6182 252.859 84.29C253.421 83.9561 254.054 83.7891 254.757 83.7891C255.331 83.7891 255.844 83.8945 256.295 84.1055C256.752 84.3105 257.136 84.6064 257.446 84.9932C257.763 85.3799 258.003 85.8457 258.167 86.3906C258.337 86.9355 258.422 87.542 258.422 88.21C258.422 88.9541 258.325 89.6338 258.132 90.249C257.944 90.8584 257.675 91.3828 257.323 91.8223C256.972 92.2617 256.544 92.6045 256.04 92.8506C255.542 93.0908 254.983 93.2109 254.361 93.2109C253.09 93.2109 252.144 92.6572 251.523 91.5498H251.487ZM251.487 89.2559C251.487 89.666 251.555 90.0527 251.69 90.416C251.83 90.7734 252.024 91.0898 252.27 91.3652C252.516 91.6348 252.812 91.8486 253.157 92.0068C253.509 92.165 253.896 92.2441 254.318 92.2441C254.769 92.2441 255.176 92.1504 255.539 91.9629C255.902 91.7695 256.21 91.4971 256.462 91.1455C256.72 90.7939 256.916 90.3691 257.051 89.8711C257.192 89.373 257.262 88.8164 257.262 88.2012C257.262 87.6738 257.197 87.1992 257.069 86.7773C256.94 86.3496 256.755 85.9863 256.515 85.6875C256.28 85.3887 255.993 85.1602 255.653 85.002C255.319 84.8438 254.944 84.7646 254.528 84.7646C254.06 84.7646 253.638 84.8525 253.263 85.0283C252.888 85.1982 252.569 85.4326 252.305 85.7314C252.041 86.0303 251.839 86.3818 251.698 86.7861C251.558 87.1846 251.487 87.6094 251.487 88.0605V89.2559ZM262.039 92.877C262.572 93.0996 263.173 93.2109 263.841 93.2109C264.521 93.2109 265.13 93.0967 265.669 92.8682C266.208 92.6396 266.665 92.3174 267.04 91.9014C267.415 91.4854 267.702 90.9902 267.902 90.416C268.107 89.8359 268.209 89.1943 268.209 88.4912C268.209 87.7529 268.113 87.0938 267.919 86.5137C267.726 85.9336 267.447 85.4414 267.084 85.0371C266.721 84.6328 266.279 84.3252 265.757 84.1143C265.236 83.8975 264.65 83.7891 263.999 83.7891C263.32 83.7891 262.704 83.8975 262.154 84.1143C261.603 84.3311 261.131 84.6475 260.738 85.0635C260.352 85.4736 260.053 85.9746 259.842 86.5664C259.631 87.1582 259.526 87.8291 259.526 88.5791C259.526 89.2705 259.625 89.9004 259.824 90.4688C260.024 91.0371 260.311 91.5264 260.686 91.9365C261.061 92.3408 261.512 92.6543 262.039 92.877ZM262.593 85.0195C262.991 84.8496 263.437 84.7646 263.929 84.7646C264.931 84.7646 265.701 85.0869 266.24 85.7314C266.779 86.3701 267.049 87.2959 267.049 88.5088C267.049 89.1006 266.979 89.6279 266.838 90.0908C266.703 90.5537 266.501 90.9463 266.232 91.2686C265.962 91.585 265.634 91.8281 265.247 91.998C264.861 92.1621 264.415 92.2441 263.911 92.2441C263.419 92.2441 262.974 92.1592 262.575 91.9893C262.177 91.8135 261.837 91.5645 261.556 91.2422C261.28 90.9199 261.067 90.5332 260.914 90.082C260.762 89.6309 260.686 89.124 260.686 88.5615C260.686 87.9639 260.762 87.4307 260.914 86.9619C261.067 86.4873 261.283 86.0889 261.565 85.7666C261.852 85.4385 262.195 85.1895 262.593 85.0195ZM273.619 93.2109C272.951 93.2109 272.351 93.0996 271.818 92.877C271.29 92.6543 270.839 92.3408 270.464 91.9365C270.089 91.5264 269.802 91.0371 269.603 90.4688C269.404 89.9004 269.304 89.2705 269.304 88.5791C269.304 87.8291 269.409 87.1582 269.62 86.5664C269.831 85.9746 270.13 85.4736 270.517 85.0635C270.909 84.6475 271.381 84.3311 271.932 84.1143C272.483 83.8975 273.098 83.7891 273.778 83.7891C274.428 83.7891 275.014 83.8975 275.535 84.1143C276.057 84.3252 276.499 84.6328 276.863 85.0371C277.226 85.4414 277.504 85.9336 277.697 86.5137C277.891 87.0938 277.988 87.7529 277.988 88.4912C277.988 89.1943 277.885 89.8359 277.68 90.416C277.481 90.9902 277.194 91.4854 276.819 91.9014C276.444 92.3174 275.987 92.6396 275.447 92.8682C274.908 93.0967 274.299 93.2109 273.619 93.2109ZM273.707 84.7646C273.215 84.7646 272.77 84.8496 272.371 85.0195C271.973 85.1895 271.63 85.4385 271.343 85.7666C271.062 86.0889 270.845 86.4873 270.693 86.9619C270.54 87.4307 270.464 87.9639 270.464 88.5615C270.464 89.124 270.54 89.6309 270.693 90.082C270.845 90.5332 271.059 90.9199 271.334 91.2422C271.615 91.5645 271.955 91.8135 272.354 91.9893C272.752 92.1592 273.197 92.2441 273.69 92.2441C274.194 92.2441 274.639 92.1621 275.026 91.998C275.412 91.8281 275.74 91.585 276.01 91.2686C276.28 90.9463 276.482 90.5537 276.616 90.0908C276.757 89.6279 276.827 89.1006 276.827 88.5088C276.827 87.2959 276.558 86.3701 276.019 85.7314C275.48 85.0869 274.709 84.7646 273.707 84.7646ZM280.875 88.6143L285.015 93H286.606L282.053 88.3506L286.272 84H284.804L280.875 88.1924H280.84V79.6758H279.715V93H280.84V88.6143H280.875ZM298.959 93V87.709C298.959 87.1699 298.918 86.7158 298.836 86.3467C298.754 85.9717 298.625 85.667 298.45 85.4326C298.28 85.1982 298.06 85.0283 297.79 84.9229C297.527 84.8174 297.21 84.7646 296.841 84.7646C296.513 84.7646 296.202 84.8438 295.909 85.002C295.617 85.1543 295.359 85.3682 295.136 85.6436C294.919 85.9131 294.746 86.2324 294.617 86.6016C294.494 86.9707 294.433 87.3691 294.433 87.7969V93H293.308V87.5947C293.308 85.708 292.584 84.7646 291.137 84.7646C290.803 84.7646 290.492 84.8408 290.205 84.9932C289.918 85.1396 289.666 85.3477 289.45 85.6172C289.239 85.8867 289.072 86.2119 288.949 86.5928C288.831 86.9678 288.773 87.3838 288.773 87.8408V93H287.648V84H288.773V85.459H288.808C289.441 84.3457 290.364 83.7891 291.576 83.7891C291.893 83.7891 292.192 83.8389 292.473 83.9385C292.754 84.0322 293.006 84.167 293.229 84.3428C293.451 84.5127 293.642 84.7178 293.8 84.958C293.964 85.1982 294.087 85.4619 294.169 85.749C294.486 85.1104 294.896 84.624 295.4 84.29C295.909 83.9561 296.484 83.7891 297.122 83.7891C299.097 83.7891 300.084 85.0078 300.084 87.4453V93H298.959ZM307.446 91.4004V93H308.571V87.1465C308.571 86.0332 308.313 85.1953 307.797 84.6328C307.287 84.0703 306.532 83.7891 305.53 83.7891C305.266 83.7891 304.994 83.8125 304.712 83.8594C304.437 83.9004 304.167 83.9619 303.904 84.0439C303.64 84.1201 303.388 84.2139 303.148 84.3252C302.913 84.4307 302.703 84.5508 302.515 84.6855V85.916C303.411 85.1484 304.384 84.7646 305.433 84.7646C306.775 84.7646 307.446 85.6289 307.446 87.3574L304.712 87.7529C303.693 87.8994 302.931 88.2158 302.427 88.7021C301.923 89.1826 301.671 89.8301 301.671 90.6445C301.671 91.0254 301.736 91.374 301.865 91.6904C301.999 92.0068 302.187 92.2793 302.427 92.5078C302.673 92.7305 302.969 92.9033 303.315 93.0264C303.666 93.1494 304.059 93.2109 304.493 93.2109C305.131 93.2109 305.703 93.0527 306.206 92.7363C306.716 92.4199 307.118 91.9746 307.411 91.4004H307.446ZM304.088 88.8516C304.375 88.7637 304.721 88.6904 305.125 88.6318L307.446 88.3066V89.1943C307.446 89.6338 307.375 90.041 307.235 90.416C307.1 90.791 306.91 91.1133 306.663 91.3828C306.423 91.6523 306.136 91.8633 305.802 92.0156C305.468 92.168 305.102 92.2441 304.703 92.2441C304.411 92.2441 304.147 92.2031 303.912 92.1211C303.684 92.0391 303.488 91.9248 303.324 91.7783C303.165 91.626 303.042 91.4473 302.954 91.2422C302.872 91.0371 302.831 90.8145 302.831 90.5742C302.831 90.252 302.875 89.9824 302.963 89.7656C303.051 89.543 303.189 89.3584 303.376 89.2119C303.564 89.0596 303.801 88.9395 304.088 88.8516ZM315.203 85.1514C314.939 84.958 314.599 84.8613 314.183 84.8613C313.884 84.8613 313.621 84.9199 313.392 85.0371C313.163 85.1484 312.961 85.3008 312.786 85.4941C312.616 85.6875 312.469 85.9131 312.346 86.1709C312.229 86.4229 312.132 86.6865 312.056 86.9619C311.986 87.2373 311.933 87.5156 311.898 87.7969C311.869 88.0781 311.854 88.3447 311.854 88.5967V93H310.738V84H311.854V85.9248H311.889C311.995 85.5967 312.126 85.3037 312.285 85.0459C312.449 84.7822 312.636 84.5625 312.847 84.3867C313.058 84.2051 313.287 84.0674 313.533 83.9736C313.785 83.8799 314.048 83.833 314.324 83.833C314.505 83.833 314.666 83.8447 314.807 83.8682C314.954 83.8916 315.085 83.9268 315.203 83.9736V85.1514ZM317.457 88.6143L321.597 93H323.188L318.635 88.3506L322.854 84H321.386L317.457 88.1924H317.422V79.6758H316.297V93H317.422V88.6143H317.457Z" fill="url(#paint0_linear)"/>
<path d="M32.5342 93H25.5557V80.3965H27.6475V91.2334H32.5342V93Z" fill="#151C45"/>
<path d="M34.6221 82.1104C34.2881 82.1104 34.001 82.002 33.7608 81.7852C33.5264 81.5684 33.4092 81.293 33.4092 80.959C33.4092 80.625 33.5264 80.3467 33.7608 80.124C34.001 79.9014 34.2881 79.79 34.6221 79.79C34.9678 79.79 35.2608 79.9014 35.501 80.124C35.7413 80.3467 35.8614 80.625 35.8614 80.959C35.8614 81.2754 35.7413 81.5479 35.501 81.7764C35.2608 81.999 34.9678 82.1104 34.6221 82.1104ZM35.6329 93H33.5938V84H35.6329V93Z" fill="#151C45"/>
<path d="M45.7804 93H43.7413V87.9287C43.7413 86.2471 43.1466 85.4062 41.9571 85.4062C41.336 85.4062 40.8233 85.6406 40.419 86.1094C40.0147 86.5723 39.8126 87.1582 39.8126 87.8672V93H37.7647V84H39.8126V85.4941H39.8477C40.5216 84.3574 41.4942 83.7891 42.7657 83.7891C43.7442 83.7891 44.4913 84.1084 45.0069 84.7471C45.5225 85.3799 45.7804 86.2969 45.7804 87.498V93Z" fill="#151C45"/>
<path d="M55.9015 93H53.3175L49.8195 88.6758H49.7843V93H47.7364V79.6758H49.7843V88.1221H49.8195L53.1241 84H55.5763L51.8585 88.3418L55.9015 93Z" fill="#151C45"/>
<path d="M58.7277 91.6992H58.6925V93H56.6535V79.6758H58.6925V85.582H58.7277C59.425 84.3867 60.4445 83.7891 61.7863 83.7891C62.923 83.7891 63.8107 84.1934 64.4494 85.002C65.0939 85.8047 65.4162 86.8828 65.4162 88.2363C65.4162 89.7422 65.0558 90.9492 64.3351 91.8574C63.6144 92.7598 62.63 93.2109 61.382 93.2109C60.2101 93.2109 59.3254 92.707 58.7277 91.6992ZM58.675 88.1221V89.2383C58.675 89.8945 58.883 90.4512 59.299 90.9082C59.7209 91.3652 60.2541 91.5938 60.8986 91.5938C61.6545 91.5938 62.2463 91.3008 62.674 90.7148C63.1076 90.123 63.3244 89.2998 63.3244 88.2451C63.3244 87.3604 63.1222 86.6689 62.7179 86.1709C62.3195 85.667 61.7775 85.415 61.092 85.415C60.3654 85.415 59.7795 85.6729 59.3341 86.1885C58.8947 86.7041 58.675 87.3486 58.675 88.1221Z" fill="#151C45"/>
<path d="M73.6564 93H71.6789V91.5938H71.6437C71.0227 92.6719 70.1115 93.2109 68.9104 93.2109C68.0256 93.2109 67.3312 92.9707 66.8273 92.4902C66.3293 92.0098 66.0803 91.374 66.0803 90.583C66.0803 88.8838 67.0588 87.8936 69.0158 87.6123L71.6877 87.2344C71.6877 85.9512 71.0783 85.3096 69.8596 85.3096C68.7873 85.3096 67.8205 85.6787 66.9592 86.417V84.6328C67.9084 84.0703 69.0041 83.7891 70.2463 83.7891C72.5197 83.7891 73.6564 84.9082 73.6564 87.1465V93ZM71.6877 88.5791L69.798 88.8428C69.2121 88.9189 68.7697 89.0625 68.4709 89.2734C68.1779 89.4785 68.0314 89.8418 68.0314 90.3633C68.0314 90.7441 68.1662 91.0576 68.4357 91.3037C68.7111 91.5439 69.0773 91.6641 69.5344 91.6641C70.1555 91.6641 70.6682 91.4473 71.0725 91.0137C71.4826 90.5742 71.6877 90.0234 71.6877 89.3613V88.5791Z" fill="#151C45"/>
<path d="M75.05 92.7188V90.8291C75.8118 91.4092 76.6526 91.6992 77.5725 91.6992C78.803 91.6992 79.4182 91.3359 79.4182 90.6094C79.4182 90.4043 79.3655 90.2314 79.26 90.0908C79.1545 89.9443 79.011 89.8154 78.8293 89.7041C78.6536 89.5928 78.4426 89.4932 78.1965 89.4053C77.9563 89.3174 77.6868 89.2178 77.3879 89.1064C77.0188 88.96 76.6848 88.8047 76.386 88.6406C76.093 88.4766 75.8469 88.292 75.6477 88.0869C75.4543 87.876 75.3078 87.6387 75.2082 87.375C75.1086 87.1113 75.0588 86.8037 75.0588 86.4521C75.0588 86.0186 75.1614 85.6377 75.3664 85.3096C75.5715 84.9756 75.8469 84.6973 76.1926 84.4746C76.5383 84.2461 76.9309 84.0762 77.3703 83.9648C77.8098 83.8477 78.2639 83.7891 78.7327 83.7891C79.5647 83.7891 80.3088 83.915 80.9651 84.167V85.9512C80.3323 85.5176 79.6057 85.3008 78.7854 85.3008C78.5276 85.3008 78.2932 85.3271 78.0823 85.3799C77.8772 85.4326 77.7014 85.5059 77.5549 85.5996C77.4084 85.6934 77.2942 85.8076 77.2121 85.9424C77.1301 86.0713 77.0891 86.2148 77.0891 86.373C77.0891 86.5664 77.1301 86.7305 77.2121 86.8652C77.2942 87 77.4143 87.1201 77.5725 87.2256C77.7366 87.3252 77.9299 87.4189 78.1526 87.5068C78.3811 87.5889 78.6418 87.6797 78.9348 87.7793C79.3215 87.9375 79.6672 88.0986 79.9719 88.2627C80.2825 88.4268 80.5461 88.6143 80.7629 88.8252C80.9797 89.0303 81.1467 89.2705 81.2639 89.5459C81.3811 89.8154 81.4397 90.1377 81.4397 90.5127C81.4397 90.9697 81.3342 91.3682 81.1233 91.708C80.9123 92.0479 80.6311 92.3291 80.2795 92.5518C79.928 92.7744 79.5207 92.9385 79.0578 93.0439C78.6008 93.1553 78.1174 93.2109 77.6077 93.2109C76.6233 93.2109 75.7707 93.0469 75.05 92.7188Z" fill="#151C45"/>
<path d="M90.4622 89.0537H84.3274C84.3509 89.8857 84.6057 90.5273 85.0921 90.9785C85.5843 91.4297 86.2581 91.6553 87.1136 91.6553C88.0745 91.6553 88.9563 91.3682 89.7591 90.7939V92.4375C88.9388 92.9531 87.8548 93.2109 86.5071 93.2109C85.1829 93.2109 84.1429 92.8037 83.387 91.9893C82.637 91.1689 82.262 90.0176 82.262 88.5352C82.262 87.1348 82.6751 85.9951 83.5013 85.1162C84.3333 84.2314 85.3645 83.7891 86.595 83.7891C87.8255 83.7891 88.7776 84.1846 89.4514 84.9756C90.1253 85.7666 90.4622 86.8652 90.4622 88.2715V89.0537ZM88.4934 87.6123C88.4876 86.8799 88.3147 86.3115 87.9749 85.9072C87.635 85.4971 87.1663 85.292 86.5686 85.292C85.9827 85.292 85.4846 85.5059 85.0745 85.9336C84.6702 86.3613 84.4212 86.9209 84.3274 87.6123H88.4934Z" fill="#151C45"/>
<rect x="0.5" y="0.5" width="796" height="710" rx="15.5" stroke="url(#paint1_linear)"/>
<defs>
<linearGradient id="paint0_linear" x1="353" y1="-6.39318e-07" x2="353" y2="711" gradientUnits="userSpaceOnUse">
<stop stop-color="#8B9BDB"/>
<stop offset="1" stop-color="#8B9BDB" stop-opacity="0"/>
</linearGradient>
<linearGradient id="paint1_linear" x1="398.5" y1="0" x2="398.5" y2="711" gradientUnits="userSpaceOnUse">
<stop stop-color="#8B9BDB"/>
<stop offset="1" stop-color="#8B9BDB" stop-opacity="0"/>
</linearGradient>
</defs>
</svg>
